<?xml version="1.0" standalone="no"?>
<!DOCTYPE svg PUBLIC "-//W3C//DTD SVG 1.1//EN" "http://www.w3.org/Graphics/SVG/1.1/DTD/svg11.dtd" >
<svg xmlns="http://www.w3.org/2000/svg">
<metadata>Generated by IcoMoon</metadata>
<defs>
<font id="icomoon-b2p" horiz-adv-x="1024">
<font-face units-per-em="1024" ascent="960" descent="-64" />
<missing-glyph horiz-adv-x="1024" />
<glyph unicode="&#x20;" horiz-adv-x="512" d="" />
<glyph unicode="&#xe900;" glyph-name="2wm" d="M813.196-63.999h-499.433c-23.544 0-42.653 19.123-42.653 42.686s19.108 42.686 42.653 42.686h499.433c27.355 0 49.648 22.311 49.648 49.687v653.443c0 23.62 19.108 42.686 42.653 42.686s42.653-19.067 42.653-42.686v-653.443c0-74.502-60.51-135.060-134.953-135.060zM570.667 398.55v-85.771h-257.11v171.542c0 47.353 38.387 85.771 85.703 85.771h85.703v85.771h-171.406v85.714h171.406c47.145 0 85.703-38.133 85.703-85.714v-85.771c0-47.353-38.33-85.771-85.703-85.771h-85.703v-85.771h171.406zM176.74 874.628c-8.417 0-15.582-8.651-15.582-18.953v-678.258c0-10.245 7.166-18.953 15.582-18.953h524.229c8.417 0 15.582 8.708 15.582 18.953v678.258c0 10.302-7.166 18.953-15.582 18.953h-524.229zM700.968 73.092h-524.229c-55.676 0-100.888 46.841-100.888 104.325v678.258c0 57.541 45.212 104.325 100.888 104.325h524.229c55.619 0 100.888-46.784 100.888-104.325v-678.258c0-57.484-45.269-104.325-100.888-104.325z" />
<glyph unicode="&#xe901;" glyph-name="3wm" d="M494.366 692.638c0 41.827-34.977 75.399-77.629 75.399h-155.258v-75.399h155.258v-75.349h-108.845c-25.653 0-46.413-20.163-46.413-45.079v-30.32l155.258-0.050v-75.349h-155.258v-76.199l155.258 0.801c42.858 0 77.629 33.772 77.629 75.399v75.399c0 13.809-4.121 26.567-10.766 37.674 6.645 11.107 10.766 23.865 10.766 37.674v75.399zM142.584 884.952c-7.624 0-14.114-7.605-14.114-16.661v-596.235c0-9.006 6.491-16.661 14.114-16.661h474.84c7.624 0 14.114 7.655 14.114 16.661v596.235c0 9.056-6.491 16.661-14.114 16.661h-474.84zM617.423 180.347h-474.84c-50.43 0-91.383 41.177-91.383 91.709v596.235c0 50.583 40.952 91.709 91.383 91.709h474.84c50.379 0 91.383-41.127 91.383-91.709v-596.235c0-50.533-41.004-91.709-91.383-91.709zM719.078 59.835h-452.432c-21.326 0-38.634 16.811-38.634 37.524s17.308 37.524 38.634 37.524h452.432c24.777 0 44.97 19.613 44.97 43.678v574.471c0 20.713 17.308 37.524 38.634 37.524s38.634-16.811 38.634-37.524v-574.471c0-65.492-54.809-118.727-122.239-118.727zM778.085-64.001h-379.903c-21.326 0-38.634 16.811-38.634 37.524s17.308 37.524 38.634 37.524h379.903c64.802 0 117.448 51.183 117.448 114.124v503.975c0 20.763 17.308 37.524 38.634 37.524s38.634-16.761 38.634-37.524v-503.975c0-104.317-87.365-189.172-194.716-189.172z" />
<glyph unicode="&#xe902;" glyph-name="add" d="M921.6 345.6h-307.2v-307.2c0-56.32-46.080-102.4-102.4-102.4s-102.4 46.080-102.4 102.4v307.2h-307.2c-56.32 0-102.4 46.080-102.4 102.4s46.080 102.4 102.4 102.4h307.2v307.2c0 56.32 46.080 102.4 102.4 102.4s102.4-46.080 102.4-102.4v-307.2h307.2c56.32 0 102.4-46.080 102.4-102.4s-46.080-102.4-102.4-102.4z" />
<glyph unicode="&#xe903;" glyph-name="add2" d="M371.399 304.747h-371.399v278.549h371.399v363.44h281.202v-363.44h371.399v-278.549h-371.399v-355.482h-281.202z" />
<glyph unicode="&#xe904;" glyph-name="arrow_large_down" d="M512 129.123l-512 512 125.754 125.754 386.246-386.246 386.246 386.246 125.754-125.754z" />
<glyph unicode="&#xe905;" glyph-name="arrow_large_left" d="M689.549-64l-470.71 512 470.71 512 115.613-115.613-355.097-396.387 355.097-396.387z" />
<glyph unicode="&#xe906;" glyph-name="arrow_large_right" d="M334.451-64l-115.613 115.613 355.097 396.387-355.097 396.387 115.613 115.613 470.71-512z" />
<glyph unicode="&#xe907;" glyph-name="arrow_large_up" d="M908.387 154.839l-396.387 355.097-396.387-355.097-115.613 115.613 512 470.71 512-470.71z" />
<glyph unicode="&#xe908;" glyph-name="arrow_small_down" d="M512 158.815l-512 502.519 75.852 75.852 436.148-445.63 436.148 445.63 75.852-75.852z" />
<glyph unicode="&#xe909;" glyph-name="arrow_small_left" d="M730.074-64l-502.519 512 502.519 512 66.371-75.852-436.148-436.148 436.148-436.148z" />
<glyph unicode="&#xe90a;" glyph-name="arrow_small_right" d="M298.667-64l-75.852 75.852 445.629 436.148-445.629 436.148 75.852 75.852 502.519-512z" />
<glyph unicode="&#xe90b;" glyph-name="arrow_small_up" d="M948.148 158.815l-436.148 445.63-436.148-445.63-75.852 75.852 512 502.519 512-502.519z" />
<glyph unicode="&#xe90c;" glyph-name="arrow_thin_down" d="M512 176.28l-512 507.509 35.93 35.93 476.070-480.561 476.070 480.561 35.93-35.93z" />
<glyph unicode="&#xe90d;" glyph-name="arrow_thin_left" d="M752.281-64l-512 512 512 512 31.438-35.929-480.562-476.070 480.562-476.070z" />
<glyph unicode="&#xe90e;" glyph-name="arrow_thin_right" d="M276.209-64l-35.929 35.929 480.563 476.071-480.563 476.071 35.929 35.929 507.51-512.001z" />
<glyph unicode="&#xe90f;" glyph-name="arrow_thin_up" d="M988.070 176.28l-476.070 480.561-476.070-480.561-35.93 35.93 512 507.509 512-507.509z" />
<glyph unicode="&#xe910;" glyph-name="check-uncheck" d="M885.459-64h-746.918c-78.306 0-138.541 60.235-138.541 138.541v746.918c0 78.306 60.235 138.541 138.541 138.541h746.918c78.306 0 138.541-60.235 138.541-138.541v-746.918c0-78.306-60.235-138.541-138.541-138.541zM138.541 899.767c-42.165 0-78.306-36.141-78.306-78.306v-746.918c0-42.165 36.141-78.306 78.306-78.306h746.918c42.165 0 78.306 36.141 78.306 78.306v746.918c0 42.165-36.141 78.306-78.306 78.306h-746.918z" />
<glyph unicode="&#xe911;" glyph-name="check" d="M910.241 959.998h-796.48c-62.56 0-113.76-51.2-113.76-113.76v-796.425c0-62.613 51.2-113.813 113.76-113.813h796.425c62.613 0 113.813 51.2 113.813 113.76v796.48c0 62.56-51.2 113.76-113.76 113.76l0.001-0.001zM398.241 163.572l-284.48 284.426 79.626 79.626 204.8-204.8 432.373 432.373 79.626-79.626-511.945-512z" />
<glyph unicode="&#xe912;" glyph-name="circle_select" d="M512-64c-283.569 0-512 228.43-512 512s228.43 512 512 512 512-228.43 512-512-228.43-512-512-512zM512 881.231c-236.308 0-433.231-196.923-433.231-433.231s196.923-433.231 433.231-433.231c236.308 0 433.231 196.923 433.231 433.231s-196.923 433.231-433.231 433.231zM827.076 448c0-174.012-141.065-315.076-315.076-315.076s-315.076 141.065-315.076 315.076c0 174.012 141.065 315.076 315.076 315.076s315.076-141.065 315.076-315.076z" />
<glyph unicode="&#xe913;" glyph-name="circle" d="M512-64c-283.569 0-512 228.43-512 512s228.43 512 512 512 512-228.43 512-512-228.43-512-512-512zM512 881.231c-236.308 0-433.231-196.923-433.231-433.231s196.923-433.231 433.231-433.231c236.308 0 433.231 196.923 433.231 433.231s-196.923 433.231-433.231 433.231z" />
<glyph unicode="&#xe914;" glyph-name="CN" d="M623.679 189.294v56.323h233.926v-56.323h-233.926zM740.625 20.484c-109.336 0-198.312 88.37-198.312 197.016 0 108.59 88.977 196.96 198.312 196.96 109.392 0 198.312-88.37 198.312-196.96 0-108.646-88.92-197.016-198.312-197.016zM457.248 217.5c0-4.449 1.077-8.561 1.304-12.954-11.342-1.352-22.797-2.197-34.536-2.197-186.857 0-338.952 151.001-338.952 336.583s152.094 336.583 338.952 336.583c186.857 0 338.952-151.001 338.952-336.583 0-14.25-1.304-28.161-3.062-41.96-6.465 0.451-12.703 1.971-19.281 1.971-156.518 0-283.376-126.050-283.376-281.444zM848.032 538.933c0 232.556-189.863 421.067-424.016 421.067s-424.016-188.512-424.016-421.067c0-232.556 189.863-421.067 424.016-421.067 17.466 0 34.423 1.521 51.152 3.886 39.583-108.083 142.964-185.752 265.456-185.752 156.518 0 283.376 125.994 283.376 281.5 0 119.404-75.197 220.841-180.903 261.731 2.835 19.544 4.934 39.369 4.934 59.702zM484.106 484.953c-7.145-6.59-17.126-9.8-30.51-9.8h-8.28v69.22h0.17c8.109 0 15.482-0.732 22.003-2.084 6.011-1.239 11.058-3.154 15.141-5.801 3.629-2.309 6.465-5.463 8.563-9.462 2.098-4.055 3.232-9.35 3.232-15.77 0-11.321-3.403-19.938-10.321-26.303zM445.997 655.329c4.423-0.225 8.506-0.676 12.136-1.295 5.614-1.014 10.094-2.422 13.554-4.449 4.82-2.647 11.228-7.941 11.228-24.444 0-13.292-4.537-28.33-37.485-30.921l0.567 61.11zM360.82 593.881v61.729h31.36v-61.729h-31.36zM360.82 475.153v69.22h31.36v-69.22h-31.36zM512.857 575.632c5.331 4.337 9.981 9.237 13.95 14.813 8.336 11.884 12.646 25.739 12.646 41.172 0 14.137-3.346 26.753-9.924 37.398-6.522 10.532-15.765 19.093-26.71 25.064-4.14 2.647-8.62 4.731-13.27 6.083-4.253 1.352-9.187 2.422-14.744 3.21-5.274 0.789-11.228 1.239-17.92 1.464-3.629 0.056-7.429 0.169-11.569 0.169l-0.17 32.216h-52.966v-32.104h-83.816v-279.472h83.816v-35.765h42.872l10.094 0.845 0.17 34.92h12.76c14.291 0 27.22 2.197 38.392 6.477 11.455 4.337 21.663 10.927 30.396 19.6 15.538 15.489 23.478 35.089 23.478 58.181 0 19.093-5.217 35.202-15.425 47.93-5.898 7.322-13.327 13.292-22.060 17.798z" />
<glyph unicode="&#xe915;" d="M575.284 959.999h-445.611c0-139.611 114.219-252.785 255.098-252.785h190.513c36.499 0 66.080-29.329 66.080-65.485 0-38.232-31.272-69.224-69.853-69.224h-119.039v-249.005l125.396 1.232c173.423 0 316.678 138.101 316.678 309.975v8.904c0 174.741-142.948 316.387-319.264 316.387z" />
<glyph unicode="&#xe916;" d="M575.284 572.371h-86.803v-250.57h86.803c36.429 0 66.080-29.37 66.080-65.485 0-38.219-31.272-69.21-69.853-69.21h-188.654l-253.184 70.165v-314.089h450.836c173.437 0 314.037 139.334 314.037 311.208v1.593c0 174.741-142.948 316.387-319.264 316.387z" />
<glyph unicode="&#xe917;" d="M887.167 323.881c-42.604-81.852-128.583-137.921-227.919-137.921-10.243 0-79.634 0.928-83.868 0.928h-244.212l-199.106-250.889h443.319c176.316 0 319.249 141.646 319.249 316.374v3.739c0 23.278-2.627 45.932-7.462 67.77z" />
<glyph unicode="&#xe918;" d="M382.584 348.074l0.279-4.736-253.184-84.414v-322.909h252.904z" />
<glyph unicode="&#xe919;" d="M887.596 709.574c-42.604-81.852-128.583-137.921-227.919-137.921-2.809 0-10.117 0.069-19.241 0.166l0.181 0.429h-35.283c-15.064 0.18-27.793 0.333-29.526 0.333h-122.602l-27.472-1.468c-165.808-11.452-296.808-148.030-296.808-315.251v-3.739c0-23.278 0.685-45.669 1.648-66.523 42.604 81.839 134.382 136.674 233.733 136.674 10.243 0 173.060-0.582 173.060-0.582h38.44c176.316 0 319.264 141.646 319.264 316.374v3.739c0 23.278-2.641 45.932-7.476 67.77z" />
<glyph unicode="&#xe91a;" glyph-name="delete" horiz-adv-x="4096" d="M3549.867-64h-3003.733c-206.507 0-375.467 168.96-375.467 375.467s168.96 375.467 375.467 375.467h3003.733c206.507 0 375.467-168.96 375.467-375.467s-168.96-375.467-375.467-375.467z" />
<glyph unicode="&#xe91b;" glyph-name="deliverydate" d="M718.868 960v-102.4h-413.737v102.4h-103.434v-102.4h-51.717c-57.406 0-103.434-45.568-103.434-102.4v-716.8c0-56.525 46.339-102.4 103.434-102.4h724.040c57.096 0 103.434 45.875 103.434 102.4v716.8c0 56.832-46.545 102.4-103.434 102.4h-51.717v102.4zM874.020 38.4h-724.040v563.2h724.040v-563.2z" />
<glyph unicode="&#xe91c;" glyph-name="DN" d="M768.978 333.608v-87.976h88.58v-56.379h-88.58v-87.976h-56.709v87.976h-88.637v56.379h88.637v87.976h56.709zM740.624 20.483c-109.392 0-198.312 88.314-198.312 196.96s88.92 196.96 198.312 196.96c109.392 0 198.312-88.314 198.312-196.96s-88.92-196.96-198.312-196.96zM457.247 217.443c0-4.337 1.077-8.392 1.248-12.729-11.399-1.183-22.797-2.366-34.479-2.366-186.914 0-338.952 150.944-338.952 336.583 0 185.583 152.038 336.583 338.952 336.583 186.857 0 338.895-151.001 338.895-336.583 0-14.25-1.191-28.218-3.006-41.96-6.465 0.451-12.703 1.915-19.281 1.915-156.518 0-283.376-125.994-283.376-281.444zM843.041 479.23c2.835 19.544 4.934 39.369 4.934 59.702 0 232.556-189.806 421.067-423.959 421.067s-424.016-188.512-424.016-421.067c0-232.556 189.863-421.067 424.016-421.067 17.41 0 34.309 1.69 51.095 3.999 39.583-108.196 142.964-185.864 265.513-185.864 156.518 0 283.376 125.994 283.376 281.444 0 119.46-75.253 220.953-180.959 261.787zM484.105 474.138c-7.145-6.59-17.183-9.8-30.51-9.8h-8.336v69.22h0.227c8.109 0 15.482-0.732 22.003-2.084 5.954-1.239 11.002-3.154 15.141-5.801 3.629-2.366 6.465-5.463 8.563-9.462 2.098-4.055 3.232-9.35 3.232-15.827 0-11.265-3.403-19.882-10.321-26.246zM445.996 644.514c4.423-0.225 8.506-0.676 12.136-1.295 5.614-1.014 10.094-2.422 13.554-4.449 4.82-2.647 11.228-7.941 11.228-24.444 0-13.292-4.593-28.387-37.485-30.921l0.567 61.11zM360.819 583.066v61.786h31.36v-61.786h-31.36zM360.819 464.338v69.22h31.36v-69.22h-31.36zM512.856 564.818c5.331 4.337 9.981 9.237 13.894 14.813 8.393 11.94 12.703 25.739 12.703 41.172 0 14.137-3.403 26.753-9.981 37.398-6.465 10.476-15.708 19.037-26.653 25.064-4.196 2.647-8.677 4.731-13.27 6.083-4.253 1.352-9.187 2.422-14.744 3.21-5.331 0.789-11.228 1.239-17.92 1.408-3.629 0.113-7.429 0.169-11.625 0.225l-0.113 32.216h-52.966v-32.104h-83.816v-279.472h83.816v-35.765h42.872l10.094 0.845 0.113 34.92h12.816c14.234 0 27.22 2.14 38.392 6.477 11.455 4.337 21.663 10.927 30.396 19.544 15.538 15.545 23.421 35.089 23.421 58.181 0 19.093-5.161 35.258-15.368 47.987-5.898 7.378-13.327 13.292-22.060 17.798z" />
<glyph unicode="&#xe91d;" glyph-name="DOA" d="M565.694 750.56c21.020 0 38.080-17.060 38.080-38.080s-17.060-38.080-38.080-38.080h-317.334c-21.020 0-38.080 17.060-38.080 38.080s17.060 38.080 38.080 38.080h317.334zM565.694 617.279c21.020 0 38.080-17.060 38.080-38.080s-17.060-38.080-38.080-38.080h-317.334c-21.020 0-38.080 17.060-38.080 38.080s17.060 38.080 38.080 38.080h317.334zM403.259 483.999c21.020 0 38.080-17.060 38.080-38.080s-17.060-38.080-38.080-38.080h-154.909c-21.020 0-38.080 17.060-38.080 38.080s17.060 38.080 38.080 38.080h154.909zM773.895 261.272c10.307 10.866 27.468 11.272 38.436 0.965 10.866-10.358 11.272-27.519 0.914-38.385l-106.828-112.514c-5.331-5.585-12.49-8.429-19.7-8.429-6.55 0-13.15 2.387-18.33 7.108l-54.582 50.062c-11.069 10.104-11.881 27.316-1.727 38.385 10.155 11.018 27.367 11.779 38.385 1.676l34.932-31.988 88.498 93.119zM711.566 12.162c-97.942 0-177.554 79.663-177.554 177.554 0 97.942 79.612 177.605 177.554 177.605s177.554-79.663 177.554-177.605c0-97.891-79.612-177.554-177.554-177.554zM461.456 225.511l-44.934-30.515c-2.641-2.539-6.093-3.858-9.495-3.858s-6.854 1.32-9.546 3.808l-36.76 25.286-10.917 7.362c-2.691 2.539-6.093 3.757-9.495 3.757-3.453 0-6.854-1.219-9.495-3.757l-47.981-32.597c-2.691-2.539-6.093-3.858-9.546-3.858-3.402 0-6.854 1.32-9.495 3.808l-48.083 32.648c-2.641 2.539-6.093 3.808-9.495 3.808-3.453 0-6.854-1.27-9.495-3.808l-61.842-40.67v646.498c0 27.722 21.426 50.418 47.677 50.418h448.938c26.2 0 47.677-22.696 47.677-50.418v-393.19c-112.819-14.521-201.723-102.359-217.716-214.721zM755.333 439.065v394.358c0 69.814-55.547 126.578-123.837 126.578h-448.938c-68.29 0-123.837-56.764-123.837-126.578v-646.498c0-27.925 15.334-53.718 40.010-67.021 11.272-6.093 23.711-9.139 36.15-9.139 14.623 0 29.195 4.214 41.837 12.541l28.941 19.040 12.388-8.429c15.791-12.236 35.084-18.938 55.242-18.938 20.208 0 39.502 6.702 55.293 18.989l11.677 7.971 11.322-7.87c15.841-12.338 35.236-19.090 55.445-19.090 20.157 0 39.502 6.702 55.242 18.989l1.777 1.219c25.032-113.834 126.172-199.185 247.52-199.185 140.134 0 253.715 113.58 253.715 253.715 0 125.156-90.783 228.532-209.948 249.349z" />
<glyph unicode="&#xe91e;" glyph-name="export" d="M604.316 137.925h113.274l-148.961 220.077 123.801 182.916h-113.274l-67.2-99.24-67.16 99.24h-113.356l123.883-182.916-148.961-220.077h246.24l-40.080 65.080h-48.839l48.279 71.319 92.353-136.399zM637.196 960l-36.2-0.76h-386.876c-51.040 0-92.359-41.32-92.359-92.319v-838.602c0-51 41.32-92.319 92.359-92.319h595.721c51 0 92.359 41.32 92.359 92.319v624.679l0.040 36.2-265.043 270.802zM820.113 28.327c0-5.64-4.6-10.24-10.28-10.24l-595.721 0.040c-5.72 0-10.32 4.56-10.32 10.24l0.040 838.561c0 5.6 4.6 10.2 10.32 10.2h386.876v-224.163h219.115l-0.031-624.638z" />
<glyph unicode="&#xe91f;" glyph-name="GR" d="M584.475 297.017c20.735 0 37.564-16.918 37.564-37.764s-16.829-37.764-37.564-37.764h-144.948c-20.735 0-37.564 16.918-37.564 37.764s16.829 37.764 37.564 37.764h144.948zM448.207 664.132l-86.047 86.504c-14.675 14.753-14.675 38.62 0 53.373s38.466 14.753 53.141 0l54.944-55.236v173.462c0 20.846 16.829 37.764 37.564 37.764s37.564-16.918 37.564-37.764v-173.512l54.994 55.286c14.625 14.703 38.416 14.803 53.141 0 14.675-14.753 14.675-38.62 0-53.373l-85.997-86.504c-16.478-16.515-38.115-24.773-59.702-24.773s-43.174 8.258-59.602 24.773zM783.64 11.527h-543.229c-15.827 0-28.749 12.991-28.749 28.902v330.006h600.678v-330.006c0-15.911-12.872-28.902-28.699-28.902zM325.507 518.57c6.862 7.452 16.628 11.732 26.696 11.732h122.259v-84.339h-216.32l67.365 72.607zM698.544 518.57l67.365-72.607h-216.32v84.339h122.259c10.117 0 19.834-4.23 26.696-11.732zM859.469 455.932l-105.931 114.148c-20.986 22.709-50.737 35.75-81.69 35.75h-319.646c-30.853 0-60.654-13.041-81.69-35.699l-104.929-113.141c-18.431-18.378-29.050-43.806-29.050-69.888v-346.672c0-57.552 46.63-104.43 103.878-104.43h543.229c57.298 0 103.827 46.878 103.827 104.43v346.572c0 26.183-10.618 51.661-27.998 68.932z" />
<glyph unicode="&#xe920;" glyph-name="INV" d="M707.923 615.625h-391.837c-25.955 0-47.020 20.571-47.020 45.917s21.065 45.917 47.020 45.917h391.837c25.955 0 47.020-20.571 47.020-45.917s-21.065-45.917-47.020-45.917zM707.923 454.917h-391.837c-25.955 0-47.020 20.571-47.020 45.917s21.065 45.917 47.020 45.917h391.837c25.955 0 47.020-20.571 47.020-45.917s-21.065-45.917-47.020-45.917zM507.29 294.209h-191.216c-25.955 0-47.020 20.571-47.020 45.917s21.065 45.917 47.020 45.917h191.216c25.955 0 47.020-20.571 47.020-45.917s-21.065-45.917-47.020-45.917zM789.168 959.998h-554.338c-84.323 0-152.91-68.507-152.91-152.688v-779.478c0-33.733 18.934-64.773 49.403-80.813 13.918-7.347 29.341-11.020 44.638-11.020 18.056 0 36.049 5.081 51.66 15.122l35.736 22.958 15.297-10.163c19.498-14.755 43.321-22.836 68.211-22.836 24.952 0 48.839 8.081 68.211 22.836l14.482 9.612 13.981-9.428c19.56-14.877 43.51-23.019 68.462-23.019s48.776 8.081 68.211 22.836l14.232 9.428 14.921-9.734c19.31-14.571 43.008-22.53 67.772-22.53 24.889 0 48.713 8.081 68.211 22.836l15.297 10.163 35.736-22.958c15.611-10.040 33.604-15.122 51.66-15.122 15.36 0 30.72 3.673 44.638 11.020 30.469 16.040 49.403 47.080 49.403 80.813v779.478c0 84.18-68.587 152.688-152.91 152.688zM789.168 868.166c32.413 0 58.87-27.366 58.87-60.855v-779.478l-76.361 49.039c-3.26 3.061-7.461 4.592-11.724 4.592-4.2 0-8.464-1.531-11.724-4.592l-59.371-39.366c-3.26-3.061-7.523-4.592-11.724-4.592s-8.464 1.531-11.786 4.592l-60.249 39.305c-2.947 2.082-6.332 3-9.78 3.306-0.564 0.061-1.003 0.429-1.567 0.429h-0.125c-3.197 0-6.269-1.286-9.279-3.122-0.376-0.245-0.94-0.184-1.379-0.551l-59.183-39.366c-3.323-3.061-7.586-4.592-11.786-4.592s-8.464 1.531-11.724 4.592l-45.453 30.427-13.479 8.938c-3.323 3.061-7.523 4.53-11.724 4.53-4.263 0-8.464-1.469-11.786-4.53l-59.183-39.366c-3.323-3.061-7.523-4.592-11.786-4.592-4.2 0-8.401 1.531-11.724 4.592l-59.308 39.366c-3.323 3.061-7.586 4.592-11.786 4.592s-8.464-1.531-11.724-4.592l-76.361-49.039v779.478c0 33.488 26.52 60.855 58.87 60.855h554.338z" />
<glyph unicode="&#xe921;" glyph-name="LOG" d="M579.39 892.611c245.132 0 444.611-199.478 444.611-444.611s-199.478-444.611-444.611-444.611c-106.747 0-209.889 38.393-290.482 108.017-15.997 13.864-17.774 38.037-3.961 54.085 13.915 16.047 38.037 17.774 54.085 3.961 66.679-57.64 152.046-89.379 240.359-89.379 202.88 0 367.928 165.047 367.928 367.928s-165.047 367.928-367.928 367.928c-196.482 0-357.009-154.941-367.013-348.985h148.796l-184.294-184.294-176.879 184.294h135.745c10.055 236.296 204.912 425.668 443.646 425.668zM570.315 680.35c21.024 0 38.088-17.063 38.088-38.088v-184.903l168.246-112.74c17.469-11.731 22.142-35.396 10.462-52.865-7.364-10.97-19.4-16.86-31.689-16.86-7.313 0-14.676 2.082-21.177 6.45l-202.017 135.39v225.53c0 21.024 17.063 38.088 38.088 38.088z" />
<glyph unicode="&#xe922;" glyph-name="Logout" d="M288.026 88.938c2.494 30.986 13.359 60.311 32.926 85.255 30.598 39.191 76.33 61.641 125.498 61.641h131.097c30.931 0 61.030-9.036 87.028-26.053 41.795-27.439 67.017-72.228 70.842-121.175-64.966-40.521-141.352-64.357-223.392-64.357-82.261 0-158.869 23.947-224.002 64.69zM88.249 448.028c0 233.591 190.077 423.723 423.78 423.723 233.647 0 423.78-190.132 423.78-423.723 0-110.587-42.96-211.030-112.527-286.585-18.626 53.548-54.102 100.554-103.215 132.76-42.516 27.938-91.795 42.683-142.516 42.683h-131.097c-80.543 0-155.266-36.585-205.21-100.443-17.85-22.893-31.486-48.060-40.798-74.723-69.456 75.554-112.194 175.886-112.194 286.307zM1024 448.028c0 282.261-229.656 511.972-511.972 511.972-282.371 0-512.027-229.711-512.027-511.972 0-164.079 77.883-310.032 198.336-403.824 5.321-6.319 11.751-11.53 19.568-14.635 83.314-58.758 184.644-93.57 294.123-93.57s210.753 34.811 294.068 93.57c7.816 3.104 14.302 8.315 19.568 14.635 120.454 93.791 198.336 239.744 198.336 403.824zM511.923 654.198c48.226 0 87.528-39.301 87.528-87.528s-39.301-87.528-87.528-87.528c-48.226 0-87.528 39.301-87.528 87.528s39.301 87.528 87.528 87.528zM511.923 388.289c98.337 0 178.381 79.989 178.381 178.381 0 98.337-80.044 178.381-178.381 178.381s-178.381-80.044-178.381-178.381c0-98.392 80.044-178.381 178.381-178.381z" />
<glyph unicode="&#xe923;" glyph-name="Mon" d="M440.826-27.264h-59.695c-27.551 0-55.104 22.96-55.104 55.104s22.96 55.104 55.104 55.104h59.695c0 0 9.184 9.184 9.184 22.96v105.615c0 27.551 22.96 55.104 55.104 55.104s50.511-27.551 50.511-55.104v-110.206c0-68.879-50.511-128.574-114.799-128.574zM578.584-27.264c-64.287 0-114.799 59.695-114.799 128.574v110.206c0 27.551 22.96 55.104 55.104 55.104s55.104-22.96 55.104-55.104v-110.206c0-13.776 4.592-22.96 9.184-22.96 27.551 0 55.104-22.96 55.104-55.104-9.184-27.551-32.144-50.511-59.695-50.511zM642.87-27.264h-234.188c-27.551 0-55.104 22.96-55.104 50.511s22.96 55.104 55.104 55.104h234.188c27.551 0 50.511-22.96 50.511-55.104s-22.96-50.511-50.511-50.511zM863.283 174.781h-707.157c-87.246 0-156.126 73.471-156.126 169.901v408.682c0 91.839 68.879 169.901 156.126 169.901h707.157c87.246 0 160.717-78.062 160.717-174.493v-404.090c0-96.43-73.471-169.901-160.717-169.901zM156.126 813.059c-27.551 0-50.511-27.551-50.511-64.287v-408.682c0-36.735 22.96-64.287 50.511-64.287h711.749c27.551 0 50.511 27.551 50.511 64.287v408.682c0 36.735-22.96 68.879-55.104 68.879h-707.157z" />
<glyph unicode="&#xe924;" glyph-name="PO" d="M855.937 121.004h-138.348c-22.947 0-41.571 18.353-41.571 40.967s18.624 40.967 41.571 40.967h138.348c7.649 0 14.3 8.029 14.3 17.206v640.662c0 9.231-6.651 17.261-14.3 17.261h-502.844c-7.815 0-14.356-7.866-14.356-17.261v-338.657c0-22.614-18.624-40.967-41.571-40.967s-41.571 18.353-41.571 40.967v338.657c0 54.731 43.733 99.194 97.498 99.194h502.844c53.765 0 97.443-44.462 97.443-99.194v-640.662c0-54.677-43.677-99.139-97.443-99.139zM764.564 670.742h-320.097c-22.947 0-41.571 18.353-41.571 40.967s18.624 40.967 41.571 40.967h320.097c22.947 0 41.571-18.353 41.571-40.967s-18.624-40.967-41.571-40.967zM764.564 538.24h-320.097c-22.947 0-41.571 18.353-41.571 40.967s18.624 40.967 41.571 40.967h320.097c22.947 0 41.571-18.353 41.571-40.967s-18.624-40.967-41.571-40.967zM600.663 405.738h-156.196c-22.947 0-41.571 18.353-41.571 40.967s18.624 40.967 41.571 40.967h156.196c22.947 0 41.571-18.353 41.571-40.967s-18.624-40.967-41.571-40.967zM313.562 403.072v-161.517c0-28.076 19.732-53.475 47.834-58.063 12.915-2.076 27.437-1.912 42.624 3.059 11.196 3.714 89.184 39.109 140.732 62.652 26.384 12.017 57.811 3.55 74.329-20.156 18.568-26.601 11.917-62.979-14.91-81.551l-227.421-157.475c0 0-68.842-54.021-119.669-54.021h-186.46v328.552l146.94 111.374c0 0 39.52 38.235 96.001 27.147z" />
<glyph unicode="&#xe925;" glyph-name="PPR" d="M786.909 555.411c-5.61-5.168-13.463-7.646-23.986-7.646h-6.518v54.156h0.16c6.357 0 12.127-0.58 17.309-1.634 4.648-1.002 8.654-2.478 11.913-4.535 2.831-1.898 5.022-4.271 6.678-7.435 1.71-3.217 2.511-7.33 2.511-12.339 0-8.806-2.618-15.556-8.067-20.566zM756.886 688.613c3.526-0.211 6.731-0.527 9.616-1.002 4.381-0.791 7.907-1.846 10.631-3.533 3.846-2.004 8.815-6.17 8.815-19.089 0-10.335-3.526-22.147-29.436-24.151l0.374 47.775zM689.895 640.574v48.25h24.681v-48.25h-24.681zM689.895 547.765v54.103h24.681v-54.103h-24.681zM809.507 626.336c4.22 3.322 7.853 7.172 11.005 11.548 6.571 9.334 9.884 20.091 9.884 32.166 0 11.126-2.564 20.934-7.8 29.266-5.128 8.226-12.34 14.923-20.995 19.617-3.259 2.057-6.784 3.691-10.417 4.693-3.312 1.107-7.212 1.951-11.592 2.531-4.167 0.633-8.868 1.002-14.104 1.16-2.831 0.053-5.823 0.158-9.082 0.158l-0.107 25.154h-41.723v-25.101h-65.87v-218.47h65.87v-27.948h33.709l8.013 0.686 0.107 27.262h10.043c11.219 0 21.369 1.687 30.183 5.062 9.028 3.375 17.042 8.542 23.933 15.345 12.233 12.076 18.43 27.368 18.43 45.455 0 14.923-4.113 27.579-12.127 37.493-4.648 5.695-10.417 10.388-17.363 13.922zM731.137 408.030c-117.262 0-212.674 94.18-212.674 209.927 0 115.8 95.412 209.979 212.674 209.979 117.315 0 212.727-94.18 212.727-209.979 0-115.747-95.412-209.927-212.727-209.927zM773.714 263.121c0-25.786-21.262-46.773-47.385-46.773h-598.811c-26.124 0-47.385 20.987-47.385 46.773v305.952c0 25.786 21.262 46.721 47.385 46.721h310.918c1.175-158.619 131.739-286.863 292.701-286.863 14.478 0 28.634 1.371 42.577 3.375v-69.185zM1023.998 617.956c0 159.673-131.098 289.078-292.861 289.078-134.678 0-247.879-89.856-281.963-212.142h-321.656c-70.304 0-127.519-56.424-127.519-125.819v-305.952c0-69.396 57.215-125.872 127.519-125.872h251.085v-52.363c0-9.281-7.64-16.822-17.042-16.822h-55.879c-22.117 0-40.067-17.718-40.067-39.55s17.95-39.55 40.067-39.55h242.484c22.117 0 40.067 17.718 40.067 39.55s-17.95 39.55-40.067 39.55h-61.756c-9.402 0-17.042 7.541-17.042 16.822v52.363h256.961c70.357 0 127.519 56.476 127.519 125.872v92.65c100.381 45.825 170.15 145.857 170.15 262.185z" />
<glyph unicode="&#xe926;" glyph-name="search" d="M974.391 65.736l-262.835 262.949c47.116 64.261 72.352 141.951 72 221.634-0.898 207.995-169.123 376.472-377.114 377.673-99.534 0.449-195.112-38.925-265.448-109.358s-109.58-166.069-108.99-265.606c0.898-208.016 169.14-376.51 377.147-377.712 80.006-0.346 157.974 25.187 222.275 72.794l0.271 0.208 262.596-262.745c14.196-14.897 35.355-20.924 55.27-15.749s35.465 20.732 40.62 40.655c5.155 19.922-0.891 41.069-15.8 55.259v0zM408.881 250.615c-166.398 0.957-300.989 135.739-301.716 302.139-0.449 79.619 30.948 156.113 87.207 212.456s132.699 87.857 212.317 87.523c166.398-0.957 300.989-135.739 301.716-302.139 0.449-79.619-30.948-156.113-87.207-212.456s-132.699-87.857-212.317-87.523z" />
</font>
</defs>
</svg>
